<svg width="145" height="145" viewBox="0 0 145 145" fill="none" xmlns="http://www.w3.org/2000/svg">
<circle cx="72.5" cy="72.5" r="72.5" fill="#D74C12"/>
<path d="M17 89C19.0443 78.5228 22.0337 67.2095 29.2222 59.2222C31.6288 56.5483 34.0342 52.9572 36 50.5C36.9071 49.3661 40.4113 49.4122 42 48C44.5211 45.7591 46.9757 45.0122 50 43.5C55.5801 40.7099 61.8752 37 68 37C71.0321 37 77.9125 38.8906 80 41.5C82.4927 44.6158 88.5299 48.9406 92 50.7778C95.6032 52.6853 97.4093 57.8119 99.8889 61C101.521 63.0983 103 66.4142 103 69" stroke="black" stroke-width="12" stroke-linecap="round" stroke-linejoin="round"/>
<path d="M79 85C86.9071 85 89.689 86.2717 96 89.7778C98.1614 90.9786 101.741 93.7177 104 94C106.081 94.2602 110.184 95.6289 111.778 97.2222C115.853 101.298 115 98.139 115 93.2222C115 86.2733 119.278 81.5 120 75C120.403 71.3738 125.074 57.4632 128 56" stroke="black" stroke-width="12" stroke-linecap="round" stroke-linejoin="round"/>
</svg>
